<svg width="24" height="24" viewBox="0 0 24 24" fill="none" xmlns="http://www.w3.org/2000/svg">
<g id="casinha" clip-path="url(#clip0_5334_893)">
<path id="icone_home" fill-rule="evenodd" clip-rule="evenodd" d="M14.5714 21.5C14.5714 21.7761 14.7953 22 15.0714 22H20.5C20.7761 22 21 21.7761 21 21.5V11.2451C21 10.5371 20.5824 9.56469 20.0673 9.08176L12.8993 2.36161C12.3782 1.87308 11.5445 1.88284 11.0239 2.37091L3.94263 9.00973C3.42045 9.49928 3 10.4633 3 11.1662C3 11.1662 3 11.5708 3 11.7732C3 14.2853 3 19.8134 3 21.501C3 21.7771 3.22386 22 3.5 22H8.92857C9.20471 22 9.42857 21.7761 9.42857 21.5V15C9.42857 14.7239 9.65243 14.5 9.92857 14.5H14.0714C14.3476 14.5 14.5714 14.7239 14.5714 15V21.5Z" fill="#A076F2"/>
</g>
<defs>
<clipPath id="clip0_5334_893">
<rect width="24" height="24" fill="white"/>
</clipPath>
</defs>
</svg>
