<svg width="20" height="20" viewBox="0 0 20 20" fill="none" xmlns="http://www.w3.org/2000/svg">
<g id="Icon">
<path fill-rule="evenodd" clip-rule="evenodd" d="M14.9061 5.41423L5.90614 9.41423L5.09386 7.58661L14.0939 3.58661L14.9061 5.41423Z" fill="#555555"/>
<path fill-rule="evenodd" clip-rule="evenodd" d="M14.0144 16.3746L5.01436 11.3746L5.98564 9.62628L14.9856 14.6263L14.0144 16.3746Z" fill="#555555"/>
<path fill-rule="evenodd" clip-rule="evenodd" d="M16.5 7.00031C18.433 7.00031 20 5.4333 20 3.50031C20 1.56731 18.433 0.000305176 16.5 0.000305176C14.567 0.000305176 13 1.56731 13 3.50031C13 5.4333 14.567 7.00031 16.5 7.00031Z" fill="#555555"/>
<path fill-rule="evenodd" clip-rule="evenodd" d="M3.5 13.0003C5.433 13.0003 7 11.4333 7 9.50031C7 7.56731 5.433 6.00031 3.5 6.00031C1.567 6.00031 0 7.56731 0 9.50031C0 11.4333 1.567 13.0003 3.5 13.0003Z" fill="#555555"/>
<path fill-rule="evenodd" clip-rule="evenodd" d="M16.5 20.0003C18.433 20.0003 20 18.4333 20 16.5003C20 14.5673 18.433 13.0003 16.5 13.0003C14.567 13.0003 13 14.5673 13 16.5003C13 18.4333 14.567 20.0003 16.5 20.0003Z" fill="#555555"/>
</g>
</svg>
