<svg width="24" height="24" viewBox="0 0 24 24" fill="none" xmlns="http://www.w3.org/2000/svg">
<path fill-rule="evenodd" clip-rule="evenodd" d="M16.9061 7.41423L7.90614 11.4142L7.09386 9.58661L16.0939 5.58661L16.9061 7.41423Z" fill="#555555"/>
<path fill-rule="evenodd" clip-rule="evenodd" d="M16.0144 18.3746L7.01436 13.3746L7.98564 11.6263L16.9856 16.6263L16.0144 18.3746Z" fill="#555555"/>
<path fill-rule="evenodd" clip-rule="evenodd" d="M18.5 9.00031C20.433 9.00031 22 7.4333 22 5.50031C22 3.56731 20.433 2.00031 18.5 2.00031C16.567 2.00031 15 3.56731 15 5.50031C15 7.4333 16.567 9.00031 18.5 9.00031Z" fill="#555555"/>
<path fill-rule="evenodd" clip-rule="evenodd" d="M5.5 15.0003C7.433 15.0003 9 13.4333 9 11.5003C9 9.56731 7.433 8.00031 5.5 8.00031C3.567 8.00031 2 9.56731 2 11.5003C2 13.4333 3.567 15.0003 5.5 15.0003Z" fill="#555555"/>
<path fill-rule="evenodd" clip-rule="evenodd" d="M18.5 22.0003C20.433 22.0003 22 20.4333 22 18.5003C22 16.5673 20.433 15.0003 18.5 15.0003C16.567 15.0003 15 16.5673 15 18.5003C15 20.4333 16.567 22.0003 18.5 22.0003Z" fill="#555555"/>
</svg>
