<svg width="24" height="24" viewBox="0 0 24 24" fill="none" xmlns="http://www.w3.org/2000/svg">
<g id="- Icon">
<path id="Download" d="M13 13.5858L16.2929 10.2929C16.6834 9.90237 17.3166 9.90237 17.7071 10.2929C18.0976 10.6834 18.0976 11.3166 17.7071 11.7071L12.7071 16.7071C12.3166 17.0976 11.6834 17.0976 11.2929 16.7071L6.29289 11.7071C5.90237 11.3166 5.90237 10.6834 6.29289 10.2929C6.68342 9.90237 7.31658 9.90237 7.70711 10.2929L11 13.5858V3C11 2.44772 11.4477 2 12 2C12.5523 2 13 2.44772 13 3V13.5858Z" fill="#555555" stroke="#555555" stroke-width="0.5"/>
<path id="Path" d="M18 19C18 18.4477 18.4477 18 19 18C19.5523 18 20 18.4477 20 19V20C20 20.4304 19.7246 20.8126 19.3162 20.9487C17.2075 21.6516 14.7686 22 12 22C9.23141 22 6.79246 21.6516 4.68377 20.9487C4.27543 20.8126 4 20.4304 4 20V19C4 18.4477 4.44772 18 5 18C5.55228 18 6 18.4477 6 19L6 19.0303C6 19.1668 6.09218 19.2861 6.22428 19.3206C6.55286 19.4063 6.81071 19.4695 6.99783 19.5103C8.49173 19.836 10.159 20 12 20C13.8445 20 15.5147 19.8354 17.0109 19.5084C17.196 19.468 17.451 19.4054 17.7759 19.3206L17.7759 19.3204C17.9079 19.286 18 19.1667 18 19.0303V19Z" fill="#555555" stroke="#555555" stroke-width="0.5"/>
</g>
</svg>
